<svg width="148" height="40" viewBox="0 0 148 40" fill="none" xmlns="http://www.w3.org/2000/svg">
<path d="M42.1803 32V9.6H44.2603V18.176H44.4203C44.847 17.5147 45.4656 16.9387 46.2763 16.448C47.1083 15.936 48.0576 15.68 49.1243 15.68C50.319 15.68 51.3963 15.968 52.3563 16.544C53.3376 17.12 54.1056 17.9413 54.6603 19.008C55.215 20.0747 55.4923 21.312 55.4923 22.72V32H53.4123V22.72C53.4123 21.1413 52.9963 19.904 52.1643 19.008C51.3323 18.0907 50.255 17.632 48.9323 17.632C47.5243 17.632 46.3936 18.0907 45.5403 19.008C44.687 19.904 44.2603 21.1413 44.2603 22.72V32H42.1803ZM66.3906 32.32C65.0252 32.32 63.7666 31.968 62.6146 31.264C61.4626 30.5387 60.5452 29.5467 59.8626 28.288C59.2012 27.008 58.8706 25.5787 58.8706 24C58.8706 22.4213 59.2012 21.0027 59.8626 19.744C60.5452 18.464 61.4626 17.472 62.6146 16.768C63.7666 16.0427 65.0252 15.68 66.3906 15.68C67.7559 15.68 69.0146 16.0427 70.1666 16.768C71.3186 17.472 72.2252 18.464 72.8866 19.744C73.5692 21.0027 73.9106 22.4213 73.9106 24C73.9106 25.5787 73.5692 27.008 72.8866 28.288C72.2252 29.5467 71.3186 30.5387 70.1666 31.264C69.0146 31.968 67.7559 32.32 66.3906 32.32ZM66.3906 30.368C67.3719 30.368 68.2786 30.1013 69.1106 29.568C69.9426 29.0347 70.6039 28.288 71.0946 27.328C71.5852 26.3467 71.8306 25.2373 71.8306 24C71.8306 22.7627 71.5852 21.664 71.0946 20.704C70.6039 19.7227 69.9426 18.9653 69.1106 18.432C68.2786 17.8987 67.3719 17.632 66.3906 17.632C65.4092 17.632 64.5026 17.8987 63.6706 18.432C62.8386 18.9653 62.1772 19.7227 61.6866 20.704C61.1959 21.664 60.9506 22.7627 60.9506 24C60.9506 25.2373 61.1959 26.3467 61.6866 27.328C62.1772 28.288 62.8386 29.0347 63.6706 29.568C64.5026 30.1013 65.4092 30.368 66.3906 30.368ZM79.6978 32H77.6178V9.6H79.6978V32ZM90.9218 32.32C89.5565 32.32 88.2978 31.968 87.1458 31.264C85.9938 30.5387 85.0765 29.5467 84.3938 28.288C83.7325 27.008 83.4018 25.5787 83.4018 24C83.4018 22.4213 83.7325 21.0027 84.3938 19.744C85.0765 18.464 85.9938 17.472 87.1458 16.768C88.2978 16.0427 89.5565 15.68 90.9218 15.68C92.2871 15.68 93.5458 16.0427 94.6978 16.768C95.8498 17.472 96.7565 18.464 97.4178 19.744C98.1005 21.0027 98.4418 22.4213 98.4418 24C98.4418 25.5787 98.1005 27.008 97.4178 28.288C96.7565 29.5467 95.8498 30.5387 94.6978 31.264C93.5458 31.968 92.2871 32.32 90.9218 32.32ZM90.9218 30.368C91.9031 30.368 92.8098 30.1013 93.6418 29.568C94.4738 29.0347 95.1351 28.288 95.6258 27.328C96.1165 26.3467 96.3618 25.2373 96.3618 24C96.3618 22.7627 96.1165 21.664 95.6258 20.704C95.1351 19.7227 94.4738 18.9653 93.6418 18.432C92.8098 17.8987 91.9031 17.632 90.9218 17.632C89.9405 17.632 89.0338 17.8987 88.2018 18.432C87.3698 18.9653 86.7085 19.7227 86.2178 20.704C85.7271 21.664 85.4818 22.7627 85.4818 24C85.4818 25.2373 85.7271 26.3467 86.2178 27.328C86.7085 28.288 87.3698 29.0347 88.2018 29.568C89.0338 30.1013 89.9405 30.368 90.9218 30.368ZM111.373 17.76L102.925 30.048H111.629V32H100.429V30.24L108.909 17.952H100.589V16H111.373V17.76ZM121.141 32.32C119.775 32.32 118.517 31.968 117.365 31.264C116.213 30.5387 115.295 29.5467 114.613 28.288C113.951 27.008 113.621 25.5787 113.621 24C113.621 22.4213 113.951 21.0027 114.613 19.744C115.295 18.464 116.213 17.472 117.365 16.768C118.517 16.0427 119.775 15.68 121.141 15.68C122.506 15.68 123.765 16.0427 124.917 16.768C126.069 17.472 126.975 18.464 127.637 19.744C128.319 21.0027 128.661 22.4213 128.661 24C128.661 25.5787 128.319 27.008 127.637 28.288C126.975 29.5467 126.069 30.5387 124.917 31.264C123.765 31.968 122.506 32.32 121.141 32.32ZM121.141 30.368C122.122 30.368 123.029 30.1013 123.861 29.568C124.693 29.0347 125.354 28.288 125.845 27.328C126.335 26.3467 126.581 25.2373 126.581 24C126.581 22.7627 126.335 21.664 125.845 20.704C125.354 19.7227 124.693 18.9653 123.861 18.432C123.029 17.8987 122.122 17.632 121.141 17.632C120.159 17.632 119.253 17.8987 118.421 18.432C117.589 18.9653 116.927 19.7227 116.437 20.704C115.946 21.664 115.701 22.7627 115.701 24C115.701 25.2373 115.946 26.3467 116.437 27.328C116.927 28.288 117.589 29.0347 118.421 29.568C119.253 30.1013 120.159 30.368 121.141 30.368ZM138.672 32.32C137.306 32.32 136.048 31.968 134.896 31.264C133.744 30.5387 132.826 29.5467 132.144 28.288C131.482 27.008 131.152 25.5787 131.152 24C131.152 22.4213 131.482 21.0027 132.144 19.744C132.826 18.464 133.744 17.472 134.896 16.768C136.048 16.0427 137.306 15.68 138.672 15.68C140.037 15.68 141.296 16.0427 142.448 16.768C143.6 17.472 144.506 18.464 145.168 19.744C145.85 21.0027 146.192 22.4213 146.192 24C146.192 25.5787 145.85 27.008 145.168 28.288C144.506 29.5467 143.6 30.5387 142.448 31.264C141.296 31.968 140.037 32.32 138.672 32.32ZM138.672 30.368C139.653 30.368 140.56 30.1013 141.392 29.568C142.224 29.0347 142.885 28.288 143.376 27.328C143.866 26.3467 144.112 25.2373 144.112 24C144.112 22.7627 143.866 21.664 143.376 20.704C142.885 19.7227 142.224 18.9653 141.392 18.432C140.56 17.8987 139.653 17.632 138.672 17.632C137.69 17.632 136.784 17.8987 135.952 18.432C135.12 18.9653 134.458 19.7227 133.968 20.704C133.477 21.664 133.232 22.7627 133.232 24C133.232 25.2373 133.477 26.3467 133.968 27.328C134.458 28.288 135.12 29.0347 135.952 29.568C136.784 30.1013 137.69 30.368 138.672 30.368Z" fill="#CBCFFB"/>
<path d="M42.1803 32H41.6803C41.6803 32.2761 41.9042 32.5 42.1803 32.5V32ZM42.1803 9.6V9.1C41.9042 9.1 41.6803 9.32386 41.6803 9.6H42.1803ZM44.2603 9.6H44.7603C44.7603 9.32386 44.5365 9.1 44.2603 9.1V9.6ZM44.2603 18.176H43.7603C43.7603 18.4521 43.9842 18.676 44.2603 18.676V18.176ZM44.4203 18.176V18.676C44.5902 18.676 44.7484 18.5898 44.8405 18.4471L44.4203 18.176ZM46.2763 16.448L46.5352 16.8758L46.5384 16.8738L46.2763 16.448ZM52.3563 16.544L52.099 16.9728L52.1032 16.9752L52.3563 16.544ZM54.6603 19.008L54.2167 19.2387V19.2387L54.6603 19.008ZM55.4923 32V32.5C55.7685 32.5 55.9923 32.2761 55.9923 32H55.4923ZM53.4123 32H52.9123C52.9123 32.2761 53.1362 32.5 53.4123 32.5V32ZM52.1643 19.008L51.7939 19.3439L51.7979 19.3482L52.1643 19.008ZM45.5403 19.008L45.9024 19.3529L45.9064 19.3486L45.5403 19.008ZM44.2603 32V32.5C44.5365 32.5 44.7603 32.2761 44.7603 32H44.2603ZM42.1803 32H42.6803V9.6H42.1803H41.6803V32H42.1803ZM42.1803 9.6V10.1H44.2603V9.6V9.1H42.1803V9.6ZM44.2603 9.6H43.7603V18.176H44.2603H44.7603V9.6H44.2603ZM44.2603 18.176V18.676H44.4203V18.176V17.676H44.2603V18.176ZM44.4203 18.176L44.8405 18.4471C45.2184 17.8612 45.7764 17.335 46.5352 16.8757L46.2763 16.448L46.0174 16.0202C45.1549 16.5423 44.4755 17.1681 44.0002 17.9049L44.4203 18.176ZM46.2763 16.448L46.5384 16.8738C47.2844 16.4147 48.1414 16.18 49.1243 16.18V15.68V15.18C47.9739 15.18 46.9322 15.4573 46.0143 16.0222L46.2763 16.448ZM49.1243 15.68V16.18C50.2347 16.18 51.222 16.4465 52.0991 16.9727L52.3563 16.544L52.6136 16.1153C51.5706 15.4895 50.4033 15.18 49.1243 15.18V15.68ZM52.3563 16.544L52.1032 16.9752C52.9988 17.5009 53.7028 18.2505 54.2167 19.2387L54.6603 19.008L55.1039 18.7773C54.5084 17.6322 53.6765 16.7391 52.6094 16.1128L52.3563 16.544ZM54.6603 19.008L54.2167 19.2387C54.7285 20.2228 54.9923 21.3786 54.9923 22.72H55.4923H55.9923C55.9923 21.2454 55.7015 19.9265 55.1039 18.7773L54.6603 19.008ZM55.4923 22.72H54.9923V32H55.4923H55.9923V22.72H55.4923ZM55.4923 32V31.5H53.4123V32V32.5H55.4923V32ZM53.4123 32H53.9123V22.72H53.4123H52.9123V32H53.4123ZM53.4123 22.72H53.9123C53.9123 21.0531 53.4713 19.6808 52.5307 18.6678L52.1643 19.008L51.7979 19.3482C52.5213 20.1272 52.9123 21.2296 52.9123 22.72H53.4123ZM52.1643 19.008L52.5347 18.6721C51.6009 17.6425 50.3853 17.132 48.9323 17.132V17.632V18.132C50.1247 18.132 51.0637 18.5388 51.794 19.3439L52.1643 19.008ZM48.9323 17.632V17.132C47.4044 17.132 46.1343 17.6353 45.1742 18.6674L45.5403 19.008L45.9064 19.3486C46.6529 18.546 47.6442 18.132 48.9323 18.132V17.632ZM45.5403 19.008L45.1782 18.6632C44.2138 19.6758 43.7603 21.0498 43.7603 22.72H44.2603H44.7603C44.7603 21.2328 45.1601 20.1322 45.9024 19.3528L45.5403 19.008ZM44.2603 22.72H43.7603V32H44.2603H44.7603V22.72H44.2603ZM44.2603 32V31.5H42.1803V32V32.5H44.2603V32ZM62.6146 31.264L62.3481 31.6872L62.3538 31.6906L62.6146 31.264ZM59.8626 28.288L59.4183 28.5176L59.423 28.5264L59.8626 28.288ZM59.8626 19.744L59.4214 19.5087L59.4199 19.5114L59.8626 19.744ZM62.6146 16.768L62.8753 17.1947L62.881 17.1911L62.6146 16.768ZM70.1666 16.768L69.9001 17.1912L69.9058 17.1946L70.1666 16.768ZM72.8866 19.744L72.4423 19.9736L72.447 19.9824L72.8866 19.744ZM72.8866 28.288L72.4454 28.0527L72.4439 28.0554L72.8866 28.288ZM70.1666 31.264L70.4273 31.6907L70.433 31.6871L70.1666 31.264ZM69.1106 29.568L68.8407 29.1471V29.1471L69.1106 29.568ZM71.0946 27.328L71.5398 27.5556L71.5418 27.5516L71.0946 27.328ZM71.0946 20.704L70.6473 20.9276L70.6493 20.9316L71.0946 20.704ZM61.6866 20.704L62.1318 20.9316L62.1338 20.9276L61.6866 20.704ZM61.6866 27.328L61.2393 27.5516L61.2413 27.5556L61.6866 27.328ZM63.6706 29.568L63.9404 29.1471V29.1471L63.6706 29.568ZM66.3906 32.32V31.82C65.1161 31.82 63.9478 31.4928 62.8753 30.8374L62.6146 31.264L62.3538 31.6906C63.5853 32.4432 64.9343 32.82 66.3906 32.82V32.32ZM62.6146 31.264L62.881 30.8409C61.8054 30.1637 60.946 29.2369 60.3021 28.0496L59.8626 28.288L59.423 28.5264C60.1444 29.8564 61.1198 30.9137 62.3482 31.6871L62.6146 31.264ZM59.8626 28.288L60.3068 28.0585C59.6855 26.8561 59.3706 25.5066 59.3706 24H58.8706H58.3706C58.3706 25.6507 58.7169 27.1599 59.4183 28.5175L59.8626 28.288ZM58.8706 24H59.3706C59.3706 22.4933 59.6855 21.1559 60.3052 19.9766L59.8626 19.744L59.4199 19.5114C58.7169 20.8495 58.3706 22.3494 58.3706 24H58.8706ZM59.8626 19.744L60.3037 19.9793C60.9476 18.772 61.8051 17.8486 62.8753 17.1946L62.6146 16.768L62.3538 16.3414C61.12 17.0954 60.1428 18.156 59.4214 19.5087L59.8626 19.744ZM62.6146 16.768L62.881 17.1911C63.9529 16.5162 65.1192 16.18 66.3906 16.18V15.68V15.18C64.9312 15.18 63.5802 15.5692 62.3482 16.3449L62.6146 16.768ZM66.3906 15.68V16.18C67.6619 16.18 68.8282 16.5162 69.9002 17.1911L70.1666 16.768L70.433 16.3449C69.2009 15.5692 67.8499 15.18 66.3906 15.18V15.68ZM70.1666 16.768L69.9058 17.1946C70.9745 17.8477 71.8201 18.7691 72.4423 19.9735L72.8866 19.744L73.3308 19.5145C72.6304 18.1589 71.6626 17.0963 70.4273 16.3414L70.1666 16.768ZM72.8866 19.744L72.447 19.9824C73.0861 21.1606 73.4106 22.4959 73.4106 24H73.9106H74.4106C74.4106 22.3468 74.0524 20.8448 73.3261 19.5056L72.8866 19.744ZM73.9106 24H73.4106C73.4106 25.504 73.0861 26.8514 72.4454 28.0527L72.8866 28.288L73.3277 28.5233C74.0524 27.1646 74.4106 25.6533 74.4106 24H73.9106ZM72.8866 28.288L72.4439 28.0554C71.8216 29.2398 70.9743 30.1646 69.9002 30.8409L70.1666 31.264L70.433 31.6871C71.6628 30.9128 72.6288 29.8535 73.3292 28.5206L72.8866 28.288ZM70.1666 31.264L69.9058 30.8374C68.8333 31.4928 67.665 31.82 66.3906 31.82V32.32V32.82C67.8468 32.82 69.1959 32.4432 70.4273 31.6906L70.1666 31.264ZM66.3906 30.368V30.868C67.4683 30.868 68.4685 30.5735 69.3804 29.9889L69.1106 29.568L68.8407 29.1471C68.0887 29.6292 67.2755 29.868 66.3906 29.868V30.368ZM69.1106 29.568L69.3804 29.9889C70.2936 29.4035 71.0126 28.587 71.5398 27.5556L71.0946 27.328L70.6493 27.1004C70.1952 27.989 69.5915 28.6658 68.8407 29.1471L69.1106 29.568ZM71.0946 27.328L71.5418 27.5516C72.0714 26.4924 72.3306 25.305 72.3306 24H71.8306H71.3306C71.3306 25.1697 71.0991 26.2009 70.6473 27.1044L71.0946 27.328ZM71.8306 24H72.3306C72.3306 22.6953 72.0714 21.5167 71.5398 20.4764L71.0946 20.704L70.6493 20.9316C71.099 21.8113 71.3306 22.83 71.3306 24H71.8306ZM71.0946 20.704L71.5418 20.4804C71.0154 19.4276 70.2964 18.5982 69.3804 18.0111L69.1106 18.432L68.8407 18.8529C69.5888 19.3324 70.1924 20.0177 70.6473 20.9276L71.0946 20.704ZM69.1106 18.432L69.3804 18.0111C68.4685 17.4265 67.4683 17.132 66.3906 17.132V17.632V18.132C67.2755 18.132 68.0887 18.3708 68.8407 18.8529L69.1106 18.432ZM66.3906 17.632V17.132C65.3129 17.132 64.3127 17.4265 63.4007 18.0111L63.6706 18.432L63.9404 18.8529C64.6925 18.3708 65.5056 18.132 66.3906 18.132V17.632ZM63.6706 18.432L63.4007 18.0111C62.4848 18.5982 61.7657 19.4276 61.2393 20.4804L61.6866 20.704L62.1338 20.9276C62.5887 20.0177 63.1924 19.3324 63.9404 18.8529L63.6706 18.432ZM61.6866 20.704L61.2413 20.4764C60.7097 21.5167 60.4506 22.6953 60.4506 24H60.9506H61.4506C61.4506 22.83 61.6821 21.8113 62.1318 20.9316L61.6866 20.704ZM60.9506 24H60.4506C60.4506 25.305 60.7098 26.4924 61.2393 27.5516L61.6866 27.328L62.1338 27.1044C61.682 26.2009 61.4506 25.1697 61.4506 24H60.9506ZM61.6866 27.328L61.2413 27.5556C61.7685 28.587 62.4875 29.4035 63.4007 29.9889L63.6706 29.568L63.9404 29.1471C63.1896 28.6658 62.5859 27.989 62.1318 27.1004L61.6866 27.328ZM63.6706 29.568L63.4007 29.9889C64.3127 30.5735 65.3129 30.868 66.3906 30.868V30.368V29.868C65.5056 29.868 64.6925 29.6292 63.9404 29.1471L63.6706 29.568ZM79.6978 32V32.5C79.974 32.5 80.1978 32.2761 80.1978 32H79.6978ZM77.6178 32H77.1178C77.1178 32.2761 77.3417 32.5 77.6178 32.5V32ZM77.6178 9.6V9.1C77.3417 9.1 77.1178 9.32386 77.1178 9.6H77.6178ZM79.6978 9.6H80.1978C80.1978 9.32386 79.974 9.1 79.6978 9.1V9.6ZM79.6978 32V31.5H77.6178V32V32.5H79.6978V32ZM77.6178 32H78.1178V9.6H77.6178H77.1178V32H77.6178ZM77.6178 9.6V10.1H79.6978V9.6V9.1H77.6178V9.6ZM79.6978 9.6H79.1978V32H79.6978H80.1978V9.6H79.6978ZM87.1458 31.264L86.8794 31.6872L86.8851 31.6906L87.1458 31.264ZM84.3938 28.288L83.9495 28.5176L83.9543 28.5264L84.3938 28.288ZM84.3938 19.744L83.9526 19.5087L83.9512 19.5114L84.3938 19.744ZM87.1458 16.768L87.4066 17.1947L87.4122 17.1911L87.1458 16.768ZM94.6978 16.768L94.4314 17.1912L94.4371 17.1946L94.6978 16.768ZM97.4178 19.744L96.9735 19.9736L96.9783 19.9824L97.4178 19.744ZM97.4178 28.288L96.9766 28.0527L96.9752 28.0554L97.4178 28.288ZM94.6978 31.264L94.9586 31.6907L94.9642 31.6871L94.6978 31.264ZM93.6418 29.568L93.372 29.1471V29.1471L93.6418 29.568ZM95.6258 27.328L96.071 27.5556L96.073 27.5516L95.6258 27.328ZM95.6258 20.704L95.1786 20.9276L95.1806 20.9316L95.6258 20.704ZM86.2178 20.704L86.663 20.9316L86.665 20.9276L86.2178 20.704ZM86.2178 27.328L85.7706 27.5516L85.7726 27.5556L86.2178 27.328ZM88.2018 29.568L88.4716 29.1471V29.1471L88.2018 29.568ZM90.9218 32.32V31.82C89.6474 31.82 88.4791 31.4928 87.4065 30.8374L87.1458 31.264L86.8851 31.6906C88.1165 32.4432 89.4656 32.82 90.9218 32.82V32.32ZM87.1458 31.264L87.4122 30.8409C86.3366 30.1637 85.4773 29.2369 84.8333 28.0496L84.3938 28.288L83.9543 28.5264C84.6757 29.8564 85.651 30.9137 86.8794 31.6871L87.1458 31.264ZM84.3938 28.288L84.838 28.0585C84.2168 26.8561 83.9018 25.5066 83.9018 24H83.4018H82.9018C82.9018 25.6507 83.2482 27.1599 83.9496 28.5175L84.3938 28.288ZM83.4018 24H83.9018C83.9018 22.4933 84.2168 21.1559 84.8364 19.9766L84.3938 19.744L83.9512 19.5114C83.2482 20.8495 82.9018 22.3494 82.9018 24H83.4018ZM84.3938 19.744L84.835 19.9793C85.4789 18.772 86.3363 17.8486 87.4065 17.1946L87.1458 16.768L86.8851 16.3414C85.6513 17.0954 84.6741 18.156 83.9526 19.5087L84.3938 19.744ZM87.1458 16.768L87.4122 17.1911C88.4842 16.5162 89.6505 16.18 90.9218 16.18V15.68V15.18C89.4625 15.18 88.1114 15.5692 86.8794 16.3449L87.1458 16.768ZM90.9218 15.68V16.18C92.1932 16.18 93.3594 16.5162 94.4314 17.1911L94.6978 16.768L94.9642 16.3449C93.7322 15.5692 92.3811 15.18 90.9218 15.18V15.68ZM94.6978 16.768L94.4371 17.1946C95.5058 17.8477 96.3513 18.7691 96.9736 19.9735L97.4178 19.744L97.862 19.5145C97.1616 18.1589 96.1939 17.0963 94.9585 16.3414L94.6978 16.768ZM97.4178 19.744L96.9783 19.9824C97.6173 21.1606 97.9418 22.4959 97.9418 24H98.4418H98.9418C98.9418 22.3468 98.5836 20.8448 97.8573 19.5056L97.4178 19.744ZM98.4418 24H97.9418C97.9418 25.504 97.6173 26.8514 96.9766 28.0527L97.4178 28.288L97.859 28.5233C98.5836 27.1646 98.9418 25.6533 98.9418 24H98.4418ZM97.4178 28.288L96.9752 28.0554C96.3529 29.2398 95.5055 30.1646 94.4314 30.8409L94.6978 31.264L94.9642 31.6871C96.1941 30.9128 97.1601 29.8535 97.8604 28.5206L97.4178 28.288ZM94.6978 31.264L94.4371 30.8374C93.3645 31.4928 92.1962 31.82 90.9218 31.82V32.32V32.82C92.378 32.82 93.7271 32.4432 94.9585 31.6906L94.6978 31.264ZM90.9218 30.368V30.868C91.9995 30.868 92.9997 30.5735 93.9116 29.9889L93.6418 29.568L93.372 29.1471C92.6199 29.6292 91.8068 29.868 90.9218 29.868V30.368ZM93.6418 29.568L93.9116 29.9889C94.8249 29.4035 95.5438 28.587 96.071 27.5556L95.6258 27.328L95.1806 27.1004C94.7265 27.989 94.1227 28.6658 93.372 29.1471L93.6418 29.568ZM95.6258 27.328L96.073 27.5516C96.6026 26.4924 96.8618 25.305 96.8618 24H96.3618H95.8618C95.8618 25.1697 95.6303 26.2009 95.1786 27.1044L95.6258 27.328ZM96.3618 24H96.8618C96.8618 22.6953 96.6027 21.5167 96.071 20.4764L95.6258 20.704L95.1806 20.9316C95.6303 21.8113 95.8618 22.83 95.8618 24H96.3618ZM95.6258 20.704L96.073 20.4804C95.5466 19.4276 94.8276 18.5982 93.9116 18.0111L93.6418 18.432L93.372 18.8529C94.12 19.3324 94.7236 20.0177 95.1786 20.9276L95.6258 20.704ZM93.6418 18.432L93.9116 18.0111C92.9997 17.4265 91.9995 17.132 90.9218 17.132V17.632V18.132C91.8068 18.132 92.6199 18.3708 93.372 18.8529L93.6418 18.432ZM90.9218 17.632V17.132C89.8441 17.132 88.8439 17.4265 87.932 18.0111L88.2018 18.432L88.4716 18.8529C89.2237 18.3708 90.0368 18.132 90.9218 18.132V17.632ZM88.2018 18.432L87.932 18.0111C87.016 18.5982 86.297 19.4276 85.7706 20.4804L86.2178 20.704L86.665 20.9276C87.12 20.0177 87.7236 19.3324 88.4716 18.8529L88.2018 18.432ZM86.2178 20.704L85.7726 20.4764C85.2409 21.5167 84.9818 22.6953 84.9818 24H85.4818H85.9818C85.9818 22.83 86.2134 21.8113 86.663 20.9316L86.2178 20.704ZM85.4818 24H84.9818C84.9818 25.305 85.241 26.4924 85.7706 27.5516L86.2178 27.328L86.665 27.1044C86.2133 26.2009 85.9818 25.1697 85.9818 24H85.4818ZM86.2178 27.328L85.7726 27.5556C86.2998 28.587 87.0187 29.4035 87.932 29.9889L88.2018 29.568L88.4716 29.1471C87.7209 28.6658 87.1172 27.989 86.663 27.1004L86.2178 27.328ZM88.2018 29.568L87.932 29.9889C88.8439 30.5735 89.8441 30.868 90.9218 30.868V30.368V29.868C90.0368 29.868 89.2237 29.6292 88.4716 29.1471L88.2018 29.568ZM111.373 17.76L111.785 18.0433C111.842 17.9599 111.873 17.8611 111.873 17.76H111.373ZM102.925 30.048L102.513 29.7647C102.407 29.9177 102.396 30.1164 102.482 30.2808C102.568 30.4451 102.739 30.548 102.925 30.548V30.048ZM111.629 30.048H112.129C112.129 29.7719 111.905 29.548 111.629 29.548V30.048ZM111.629 32V32.5C111.905 32.5 112.129 32.2761 112.129 32H111.629ZM100.429 32H99.9286C99.9286 32.2761 100.152 32.5 100.429 32.5V32ZM100.429 30.24L100.017 29.956C99.9594 30.0395 99.9286 30.1386 99.9286 30.24H100.429ZM108.909 17.952L109.32 18.236C109.426 18.083 109.438 17.8842 109.351 17.7196C109.265 17.5551 109.094 17.452 108.909 17.452V17.952ZM100.589 17.952H100.089C100.089 18.2281 100.312 18.452 100.589 18.452V17.952ZM100.589 16V15.5C100.312 15.5 100.089 15.7239 100.089 16H100.589ZM111.373 16H111.873C111.873 15.7239 111.649 15.5 111.373 15.5V16ZM111.373 17.76L110.961 17.4767L102.513 29.7647L102.925 30.048L103.337 30.3313L111.785 18.0433L111.373 17.76ZM102.925 30.048V30.548H111.629V30.048V29.548H102.925V30.048ZM111.629 30.048H111.129V32H111.629H112.129V30.048H111.629ZM111.629 32V31.5H100.429V32V32.5H111.629V32ZM100.429 32H100.929V30.24H100.429H99.9286V32H100.429ZM100.429 30.24L100.84 30.524L109.32 18.236L108.909 17.952L108.497 17.668L100.017 29.956L100.429 30.24ZM108.909 17.952V17.452H100.589V17.952V18.452H108.909V17.952ZM100.589 17.952H101.089V16H100.589H100.089V17.952H100.589ZM100.589 16V16.5H111.373V16V15.5H100.589V16ZM111.373 16H110.873V17.76H111.373H111.873V16H111.373ZM117.365 31.264L117.098 31.6872L117.104 31.6906L117.365 31.264ZM114.613 28.288L114.168 28.5176L114.173 28.5264L114.613 28.288ZM114.613 19.744L114.171 19.5087L114.17 19.5114L114.613 19.744ZM117.365 16.768L117.625 17.1947L117.631 17.1911L117.365 16.768ZM124.917 16.768L124.65 17.1912L124.656 17.1946L124.917 16.768ZM127.637 19.744L127.192 19.9736L127.197 19.9824L127.637 19.744ZM127.637 28.288L127.195 28.0527L127.194 28.0554L127.637 28.288ZM124.917 31.264L125.177 31.6907L125.183 31.6871L124.917 31.264ZM123.861 29.568L123.591 29.1471V29.1471L123.861 29.568ZM125.845 27.328L126.29 27.5556L126.292 27.5516L125.845 27.328ZM125.845 20.704L125.397 20.9276L125.399 20.9316L125.845 20.704ZM116.437 20.704L116.882 20.9316L116.884 20.9276L116.437 20.704ZM116.437 27.328L115.989 27.5516L115.991 27.5556L116.437 27.328ZM118.421 29.568L118.69 29.1471V29.1471L118.421 29.568ZM121.141 32.32V31.82C119.866 31.82 118.698 31.4928 117.625 30.8374L117.365 31.264L117.104 31.6906C118.335 32.4432 119.684 32.82 121.141 32.82V32.32ZM117.365 31.264L117.631 30.8409C116.555 30.1637 115.696 29.2369 115.052 28.0496L114.613 28.288L114.173 28.5264C114.894 29.8564 115.87 30.9137 117.098 31.6871L117.365 31.264ZM114.613 28.288L115.057 28.0585C114.436 26.8561 114.121 25.5066 114.121 24H113.621H113.121C113.121 25.6507 113.467 27.1599 114.168 28.5175L114.613 28.288ZM113.621 24H114.121C114.121 22.4933 114.436 21.1559 115.055 19.9766L114.613 19.744L114.17 19.5114C113.467 20.8495 113.121 22.3494 113.121 24H113.621ZM114.613 19.744L115.054 19.9793C115.698 18.772 116.555 17.8486 117.625 17.1946L117.365 16.768L117.104 16.3414C115.87 17.0954 114.893 18.156 114.171 19.5087L114.613 19.744ZM117.365 16.768L117.631 17.1911C118.703 16.5162 119.869 16.18 121.141 16.18V15.68V15.18C119.681 15.18 118.33 15.5692 117.098 16.3449L117.365 16.768ZM121.141 15.68V16.18C122.412 16.18 123.578 16.5162 124.65 17.1911L124.917 16.768L125.183 16.3449C123.951 15.5692 122.6 15.18 121.141 15.18V15.68ZM124.917 16.768L124.656 17.1946C125.725 17.8477 126.57 18.7691 127.192 19.9735L127.637 19.744L128.081 19.5145C127.38 18.1589 126.413 17.0963 125.177 16.3414L124.917 16.768ZM127.637 19.744L127.197 19.9824C127.836 21.1606 128.161 22.4959 128.161 24H128.661H129.161C129.161 22.3468 128.802 20.8448 128.076 19.5056L127.637 19.744ZM128.661 24H128.161C128.161 25.504 127.836 26.8514 127.195 28.0527L127.637 28.288L128.078 28.5233C128.802 27.1646 129.161 25.6533 129.161 24H128.661ZM127.637 28.288L127.194 28.0554C126.572 29.2398 125.724 30.1646 124.65 30.8409L124.917 31.264L125.183 31.6871C126.413 30.9128 127.379 29.8535 128.079 28.5206L127.637 28.288ZM124.917 31.264L124.656 30.8374C123.583 31.4928 122.415 31.82 121.141 31.82V32.32V32.82C122.597 32.82 123.946 32.4432 125.177 31.6906L124.917 31.264ZM121.141 30.368V30.868C122.218 30.868 123.218 30.5735 124.13 29.9889L123.861 29.568L123.591 29.1471C122.839 29.6292 122.026 29.868 121.141 29.868V30.368ZM123.861 29.568L124.13 29.9889C125.044 29.4035 125.763 28.587 126.29 27.5556L125.845 27.328L125.399 27.1004C124.945 27.989 124.341 28.6658 123.591 29.1471L123.861 29.568ZM125.845 27.328L126.292 27.5516C126.821 26.4924 127.081 25.305 127.081 24H126.581H126.081C126.081 25.1697 125.849 26.2009 125.397 27.1044L125.845 27.328ZM126.581 24H127.081C127.081 22.6953 126.821 21.5167 126.29 20.4764L125.845 20.704L125.399 20.9316C125.849 21.8113 126.081 22.83 126.081 24H126.581ZM125.845 20.704L126.292 20.4804C125.765 19.4276 125.046 18.5982 124.13 18.0111L123.861 18.432L123.591 18.8529C124.339 19.3324 124.942 20.0177 125.397 20.9276L125.845 20.704ZM123.861 18.432L124.13 18.0111C123.218 17.4265 122.218 17.132 121.141 17.132V17.632V18.132C122.026 18.132 122.839 18.3708 123.591 18.8529L123.861 18.432ZM121.141 17.632V17.132C120.063 17.132 119.063 17.4265 118.151 18.0111L118.421 18.432L118.69 18.8529C119.442 18.3708 120.256 18.132 121.141 18.132V17.632ZM118.421 18.432L118.151 18.0111C117.235 18.5982 116.516 19.4276 115.989 20.4804L116.437 20.704L116.884 20.9276C117.339 20.0177 117.942 19.3324 118.69 18.8529L118.421 18.432ZM116.437 20.704L115.991 20.4764C115.46 21.5167 115.201 22.6953 115.201 24H115.701H116.201C116.201 22.83 116.432 21.8113 116.882 20.9316L116.437 20.704ZM115.701 24H115.201C115.201 25.305 115.46 26.4924 115.989 27.5516L116.437 27.328L116.884 27.1044C116.432 26.2009 116.201 25.1697 116.201 24H115.701ZM116.437 27.328L115.991 27.5556C116.519 28.587 117.237 29.4035 118.151 29.9889L118.421 29.568L118.69 29.1471C117.94 28.6658 117.336 27.989 116.882 27.1004L116.437 27.328ZM118.421 29.568L118.151 29.9889C119.063 30.5735 120.063 30.868 121.141 30.868V30.368V29.868C120.256 29.868 119.442 29.6292 118.69 29.1471L118.421 29.568ZM134.896 31.264L134.629 31.6872L134.635 31.6906L134.896 31.264ZM132.144 28.288L131.7 28.5176L131.704 28.5264L132.144 28.288ZM132.144 19.744L131.703 19.5087L131.701 19.5114L132.144 19.744ZM134.896 16.768L135.157 17.1947L135.162 17.1911L134.896 16.768ZM142.448 16.768L142.181 17.1912L142.187 17.1946L142.448 16.768ZM145.168 19.744L144.724 19.9736L144.728 19.9824L145.168 19.744ZM145.168 28.288L144.727 28.0527L144.725 28.0554L145.168 28.288ZM142.448 31.264L142.709 31.6907L142.714 31.6871L142.448 31.264ZM141.392 29.568L141.122 29.1471V29.1471L141.392 29.568ZM143.376 27.328L143.821 27.5556L143.823 27.5516L143.376 27.328ZM143.376 20.704L142.929 20.9276L142.931 20.9316L143.376 20.704ZM133.968 20.704L134.413 20.9316L134.415 20.9276L133.968 20.704ZM133.968 27.328L133.521 27.5516L133.523 27.5556L133.968 27.328ZM135.952 29.568L136.222 29.1471V29.1471L135.952 29.568ZM138.672 32.32V31.82C137.397 31.82 136.229 31.4928 135.157 30.8374L134.896 31.264L134.635 31.6906C135.867 32.4432 137.216 32.82 138.672 32.82V32.32ZM134.896 31.264L135.162 30.8409C134.087 30.1637 133.227 29.2369 132.583 28.0496L132.144 28.288L131.704 28.5264C132.426 29.8564 133.401 30.9137 134.629 31.6871L134.896 31.264ZM132.144 28.288L132.588 28.0585C131.967 26.8561 131.652 25.5066 131.652 24H131.152H130.652C130.652 25.6507 130.998 27.1599 131.7 28.5175L132.144 28.288ZM131.152 24H131.652C131.652 22.4933 131.967 21.1559 132.586 19.9766L132.144 19.744L131.701 19.5114C130.998 20.8495 130.652 22.3494 130.652 24H131.152ZM132.144 19.744L132.585 19.9793C133.229 18.772 134.086 17.8486 135.157 17.1946L134.896 16.768L134.635 16.3414C133.401 17.0954 132.424 18.156 131.703 19.5087L132.144 19.744ZM134.896 16.768L135.162 17.1911C136.234 16.5162 137.4 16.18 138.672 16.18V15.68V15.18C137.212 15.18 135.861 15.5692 134.629 16.3449L134.896 16.768ZM138.672 15.68V16.18C139.943 16.18 141.109 16.5162 142.181 17.1911L142.448 16.768L142.714 16.3449C141.482 15.5692 140.131 15.18 138.672 15.18V15.68ZM142.448 16.768L142.187 17.1946C143.256 17.8477 144.101 18.7691 144.724 19.9735L145.168 19.744L145.612 19.5145C144.912 18.1589 143.944 17.0963 142.709 16.3414L142.448 16.768ZM145.168 19.744L144.728 19.9824C145.367 21.1606 145.692 22.4959 145.692 24H146.192H146.692C146.692 22.3468 146.334 20.8448 145.607 19.5056L145.168 19.744ZM146.192 24H145.692C145.692 25.504 145.367 26.8514 144.727 28.0527L145.168 28.288L145.609 28.5233C146.334 27.1646 146.692 25.6533 146.692 24H146.192ZM145.168 28.288L144.725 28.0554C144.103 29.2398 143.256 30.1646 142.181 30.8409L142.448 31.264L142.714 31.6871C143.944 30.9128 144.91 29.8535 145.61 28.5206L145.168 28.288ZM142.448 31.264L142.187 30.8374C141.115 31.4928 139.946 31.82 138.672 31.82V32.32V32.82C140.128 32.82 141.477 32.4432 142.709 31.6906L142.448 31.264ZM138.672 30.368V30.868C139.75 30.868 140.75 30.5735 141.662 29.9889L141.392 29.568L141.122 29.1471C140.37 29.6292 139.557 29.868 138.672 29.868V30.368ZM141.392 29.568L141.662 29.9889C142.575 29.4035 143.294 28.587 143.821 27.5556L143.376 27.328L142.931 27.1004C142.476 27.989 141.873 28.6658 141.122 29.1471L141.392 29.568ZM143.376 27.328L143.823 27.5516C144.353 26.4924 144.612 25.305 144.612 24H144.112H143.612C143.612 25.1697 143.38 26.2009 142.929 27.1044L143.376 27.328ZM144.112 24H144.612C144.612 22.6953 144.353 21.5167 143.821 20.4764L143.376 20.704L142.931 20.9316C143.38 21.8113 143.612 22.83 143.612 24H144.112ZM143.376 20.704L143.823 20.4804C143.297 19.4276 142.578 18.5982 141.662 18.0111L141.392 18.432L141.122 18.8529C141.87 19.3324 142.474 20.0177 142.929 20.9276L143.376 20.704ZM141.392 18.432L141.662 18.0111C140.75 17.4265 139.75 17.132 138.672 17.132V17.632V18.132C139.557 18.132 140.37 18.3708 141.122 18.8529L141.392 18.432ZM138.672 17.632V17.132C137.594 17.132 136.594 17.4265 135.682 18.0111L135.952 18.432L136.222 18.8529C136.974 18.3708 137.787 18.132 138.672 18.132V17.632ZM135.952 18.432L135.682 18.0111C134.766 18.5982 134.047 19.4276 133.521 20.4804L133.968 20.704L134.415 20.9276C134.87 20.0177 135.474 19.3324 136.222 18.8529L135.952 18.432ZM133.968 20.704L133.523 20.4764C132.991 21.5167 132.732 22.6953 132.732 24H133.232H133.732C133.732 22.83 133.963 21.8113 134.413 20.9316L133.968 20.704ZM133.232 24H132.732C132.732 25.305 132.991 26.4924 133.521 27.5516L133.968 27.328L134.415 27.1044C133.963 26.2009 133.732 25.1697 133.732 24H133.232ZM133.968 27.328L133.523 27.5556C134.05 28.587 134.769 29.4035 135.682 29.9889L135.952 29.568L136.222 29.1471C135.471 28.6658 134.867 27.989 134.413 27.1004L133.968 27.328ZM135.952 29.568L135.682 29.9889C136.594 30.5735 137.594 30.868 138.672 30.868V30.368V29.868C137.787 29.868 136.974 29.6292 136.222 29.1471L135.952 29.568Z" fill="#CBCFFB"/>
<line x1="10.7002" y1="11.2063" x2="13.3369" y2="22.5063" stroke="#CBCFFB" stroke-width="2.63667"/>
<line x1="13.1893" y1="22.1129" x2="21.0993" y2="9.3062" stroke="#CBCFFB" stroke-width="2.63667"/>
<line x1="11.8898" y1="23.1103" x2="29.5932" y2="15.2003" stroke="#CBCFFB" stroke-width="2.63667"/>
<line x1="13.0957" y1="21.8976" x2="24.7724" y2="24.5343" stroke="#CBCFFB" stroke-width="2.63667"/>
<line x1="2.89187" y1="23.001" x2="11.1786" y2="22.2477" stroke="#CBCFFB" stroke-width="2.63667"/>
<line x1="12.9562" y1="23.8793" x2="10.6962" y2="32.9193" stroke="#CBCFFB" stroke-width="2.63667"/>
<line x1="2.13774" y1="31.6122" x2="11.9311" y2="22.9488" stroke="#CBCFFB" stroke-width="2.63667"/>
<line x1="13.3786" y1="23.023" x2="22.4187" y2="32.4397" stroke="#CBCFFB" stroke-width="2.63667"/>
<line x1="0.769428" y1="13.827" x2="12.8228" y2="22.4903" stroke="#CBCFFB" stroke-width="2.63667"/>
</svg>
