<svg width="18" height="18" viewBox="0 0 18 18" fill="none" xmlns="http://www.w3.org/2000/svg">
<path d="M17.6065 1.23352C17.6065 0.552286 17.0543 4.02922e-05 16.3731 4.08191e-05L5.27178 4.05662e-05C4.59055 4.05662e-05 4.0383 0.552286 4.0383 1.23352C4.0383 1.91474 4.59055 2.46699 5.27178 2.46699L15.1396 2.46699L15.1396 12.3348C15.1396 13.016 15.6918 13.5683 16.3731 13.5683C17.0543 13.5683 17.6065 13.016 17.6065 12.3348L17.6065 1.23352ZM0.872192 16.7344L1.74439 17.6066L17.2453 2.10571L16.3731 1.23352L15.5009 0.361317L-6.28646e-06 15.8622L0.872192 16.7344Z" fill="#CBCFFB"/>
</svg>
